<?xml version="1.0" encoding="UTF-8" standalone="no"?>
<svg width="250px" height="83px" viewBox="0 0 250 83" version="1.1" xmlns="http://www.w3.org/2000/svg" xmlns:xlink="http://www.w3.org/1999/xlink">
    <!-- Generator: Sketch 3.8.3 (29802) - http://www.bohemiancoding.com/sketch -->
    <title>logo510px</title>
    <desc>Created with Sketch.</desc>
    <defs></defs>
    <g id="Page-1" stroke="none" stroke-width="1" fill="none" fill-rule="evenodd">
        <g id="logo510px">
            <g id="Group">
                <path d="M94.3387798,51.2768016 C94.3387798,52.851389 94.0288244,54.320571 93.4213077,55.6967792 C92.813791,57.066794 92.0017093,58.2756192 90.9850475,59.3108832 C89.9683933,60.3523404 88.7781554,61.1644222 87.4019473,61.7533366 C86.0319399,62.3360578 84.5565497,62.6274109 82.988163,62.6274109 C81.4135832,62.6274109 79.9381929,62.3360578 78.5681855,61.7533366 C77.1981781,61.1644222 75.9893454,60.3523404 74.9478882,59.3108832 C73.9064384,58.2756192 73.0943492,57.066794 72.5116355,55.6967792 C71.9289144,54.320571 71.6375538,52.851389 71.6375538,51.2768016 L71.6375538,45.4868092 L78.4937989,44.7243185 L78.4937989,51.2768016 C78.4937989,52.5476194 78.9215387,53.6138796 79.7894122,54.4755524 C80.6510925,55.3372401 81.7173452,55.7711732 82.988163,55.7711732 C84.2527875,55.7711732 85.3190403,55.3372401 86.1869213,54.4755524 C87.0486016,53.6138796 87.4825346,52.5476194 87.4825346,51.2768016 L87.4825346,47.6937088 C87.4825346,47.3403481 87.4143488,46.9746009 87.2903636,46.590259 C87.1601852,46.2121103 87.0237986,45.8959542 86.8688246,45.6417906 C86.6704529,45.338036 86.4906759,45.0280731 86.3356945,44.7243185 L74.3031819,30.3299324 C73.7948548,29.6666238 73.3361188,28.959925 72.9331745,28.1974343 C72.5736206,27.5341258 72.269866,26.7592336 72.0157024,25.8727578 C71.7615388,24.986282 71.6375537,24.0316128 71.6375537,23.0149586 L71.6375537,21.0374345 C71.6375537,19.4628547 71.9289143,17.9874569 72.5116355,16.6174495 C73.0943492,15.2474421 73.9064384,14.0510109 74.9478881,13.0343567 C75.9893454,12.0238958 77.198178,11.2056058 78.5681854,10.5980966 C79.9381928,9.99057985 81.4135831,9.68682525 82.988163,9.68682525 C84.5565496,9.68682525 86.0319399,9.99057985 87.4019473,10.5980966 C88.7781554,11.2056058 89.9683933,12.0238958 90.9850475,13.0343567 C92.0017092,14.0510109 92.8137909,15.2474421 93.4213076,16.6174495 C94.0288244,17.9874569 94.3387798,19.4628547 94.3387798,21.0374345 L94.3387798,25.6805868 L87.4825346,26.4430775 L87.4825346,21.0374345 C87.4825346,19.7666093 87.0486016,18.700364 86.1869213,17.8386837 C85.3190403,16.9708026 84.2527875,16.5430629 82.988163,16.5430629 C81.7173452,16.5430629 80.6510925,16.9708026 79.7894122,17.8386837 C78.9215387,18.700364 78.4937989,19.7666092 78.4937989,21.0374345 L78.4937989,23.0149586 C78.4937989,23.4736947 78.54339,23.8828322 78.6425721,24.2361853 C78.7479625,24.5895385 78.8471446,24.8932931 78.9463342,25.1474567 C79.1013082,25.4512188 79.2810851,25.7053823 79.4794569,25.9099548 L91.5181702,40.3043409 C92.0265048,40.967642 92.4790401,41.7053371 92.888185,42.5174338 C93.2415307,43.2303334 93.5762816,44.0300136 93.8800437,44.9164895 C94.1837983,45.8029652 94.3387798,46.7328389 94.3387798,47.6937087 L94.3387798,51.2768016 L94.3387798,51.2768016 Z" id="Shape" fill="#FFFFFF"></path>
                <polygon id="Shape" fill="#FFFFFF" points="99.2672565 10.449316 120.443494 10.449316 120.443494 17.3055537 113.283494 17.3055537 113.283494 61.8649202 106.427256 61.8649202 106.427256 17.3055537 99.2672565 17.3055537 99.2672565 10.449316"></polygon>
                <polygon id="Shape" fill="#FFFFFF" points="149.505361 10.449316 170.681598 10.449316 170.681598 17.3055537 163.521606 17.3055537 163.521606 61.8649202 156.665353 61.8649202 156.665353 17.3055537 149.505361 17.3055537 149.505361 10.449316"></polygon>
                <polygon id="Shape" fill="#FFFFFF" points="177.06067 10.449316 194.963762 10.449316 194.963762 17.3055537 183.916907 17.3055537 183.916907 32.7661926 191.690632 32.7661926 191.690632 39.6224303 183.916907 39.6224303 183.916907 61.8649203 177.06067 61.8649203 177.06067 10.449316"></polygon>
                <path d="M216.877866,10.449316 L223.734104,10.449316 L223.734104,51.3511957 C223.734104,52.9257681 223.442751,54.4011583 222.86003,55.7711732 C222.277308,57.1411881 221.477628,58.3376118 220.460959,59.3480727 C219.444305,60.364727 218.254074,61.1644222 216.877866,61.7533366 C215.507866,62.3360578 214.063457,62.6274109 212.538476,62.6274109 C210.963889,62.6274109 209.488498,62.3360578 208.118499,61.7533366 C206.748484,61.1644222 205.558253,60.364727 204.541599,59.3480727 C203.52493,58.3376118 202.72525,57.1411881 202.142528,55.7711732 C201.553614,54.4011584 201.262246,52.9257681 201.262246,51.3511957 L201.262246,10.449316 L208.118499,10.449316 L208.118499,51.3511957 C208.118499,52.5724224 208.552432,53.6138796 209.414104,54.4755524 C210.275792,55.3372401 211.317249,55.7711732 212.538476,55.7711732 C213.703918,55.7711732 214.720573,55.3372401 215.588454,54.4755524 C216.450126,53.6138796 216.877866,52.5724224 216.877866,51.3511957 L216.877866,10.449316 L216.877866,10.449316 Z" id="Shape" fill="#FFFFFF"></path>
                <polygon id="Shape" fill="#FFFFFF" points="232.171302 10.449316 239.027539 10.449316 239.027539 55.0086825 250 55.0086825 250 61.8649202 232.171302 61.8649202 232.171302 10.449316"></polygon>
                <polygon id="Shape" fill="#FFFFFF" points="140.838773 61.8649052 147.69513 61.8649052 139.846936 10.4492487 130.095658 10.4492487 122.253829 61.8649052 129.103821 61.8649052 134.893874 18.6755386 135.04893 18.6755386 137.313738 35.3812349 137.313738 35.3827757"></polygon>
                <g transform="translate(71.568627, 68.627451)" id="Shape">
                    <path d="M6.48067701,5.8945151 C6.48067701,5.28865142 5.99196941,4.79995127 5.38611319,4.79995127 C4.78024951,4.79995127 4.29154191,5.28865137 4.29154191,5.8945151 L4.29154191,13.4209128 L3.27480539,13.4209128 L3.27480539,5.8945151 C3.27480539,5.28865142 2.78609779,4.79995127 2.18023412,4.79995127 C1.57437789,4.79995127 1.08567029,5.28865137 1.08567029,5.8945151 L1.08567029,13.4209128 L0.0689263235,13.4209128 L0.0689263235,3.88111789 L0.772700588,3.88111789 L0.949268725,4.62422093 C1.28148397,4.11626779 1.82877338,3.7840451 2.43462956,3.7840451 C2.98191147,3.7840451 3.47061907,4.05768603 3.8220873,4.48781936 C4.19363882,4.05768608 4.76100397,3.7840451 5.38611319,3.7840451 C6.55934201,3.7840451 7.49742098,4.72213152 7.49742098,5.89451515 L7.49742098,13.4209128 L6.48067701,13.4209128 L6.48067701,5.8945151 L6.48067701,5.8945151 Z" fill="#FFFFFF"></path>
                    <path d="M13.0698335,12.052708 C13.0698335,12.2476914 13.2263258,12.4041838 13.4221395,12.4041838 L13.4221395,13.4209128 C13.0112592,13.4209128 12.6397076,13.2451824 12.38615,12.9707037 C12.0145984,13.3230172 11.5066453,13.5188234 10.9593634,13.5188234 C9.78613461,13.5188234 8.84805564,12.5799142 8.84805564,11.4075156 L8.84805564,10.3322048 C8.84805564,9.35478961 9.70831475,8.86608951 9.70831475,8.86608951 L11.2129211,8.00582294 C11.2129211,8.00582294 12.0539347,7.51712284 12.0539347,6.73552877 L12.0539347,5.77736657 C12.0539347,5.23008466 11.6238014,4.79995137 11.0765195,4.79995137 C10.5292376,4.79995137 10.0991118,5.23008466 10.0991118,5.77736657 L10.0991118,6.91125917 L9.08236784,7.02842275 L9.08236784,5.77736662 C9.08236784,4.68280279 9.98195574,3.7840452 11.0765196,3.7840452 C12.1710834,3.7840452 13.0698335,4.68280284 13.0698335,5.77736662 L13.0698335,12.052708 L13.0698335,12.052708 Z M9.86396191,11.4075156 C9.86396191,12.0133793 10.3526695,12.5020794 10.9593634,12.5020794 C11.5652271,12.5020794 12.0539347,12.0133793 12.0539347,11.4075156 L12.0539347,8.6317773 C11.8974424,8.78825471 11.721712,8.8853275 11.721712,8.8853275 L10.2162678,9.74557912 C10.2162678,9.74557912 9.86396186,9.94140025 9.86396186,10.3322048 L9.86396186,11.4075156 L9.86396191,11.4075156 Z" fill="#FFFFFF"></path>
                    <polygon fill="#FFFFFF" points="16.4723639 8.65101534 15.7878427 8.65101534 15.7878427 13.4209128 14.7710987 13.4209128 14.7710987 0.343023578 15.7878427 0.22586 15.7878427 7.63427137 16.5108625 7.63427137 18.2121277 3.88111789 19.2280265 3.88111789 17.3125398 8.14306225 19.2280265 13.4209128 18.2121277 13.4209128"></polygon>
                    <path d="M24.3117389,10.1564594 L24.3117389,11.4075155 C24.3117389,12.5799141 23.37366,13.5188233 22.2004311,13.5188233 C21.02804,13.5188233 20.0891233,12.5799141 20.0891233,11.4075155 L20.0891233,5.89451505 C20.0891233,4.72213142 21.02804,3.784045 22.2004311,3.784045 C23.3736599,3.784045 24.3117389,4.72213142 24.3117389,5.89451505 L24.3117389,8.82674569 L21.1058673,8.82674569 L21.1058673,11.4075155 C21.1058673,12.0133792 21.5945674,12.5020794 22.2004311,12.5020794 C22.8062949,12.5020794 23.294995,12.0133793 23.294995,11.4075155 L23.294995,10.2736229 L24.3117389,10.1564594 L24.3117389,10.1564594 Z M21.1058673,7.81083946 L23.2949949,7.81083946 L23.2949949,5.89451505 C23.2949949,5.28865137 22.8062948,4.79995123 22.200431,4.79995123 C21.5945673,4.79995123 21.1058672,5.28865132 21.1058672,5.89451505 L21.1058672,7.81083946 L21.1058673,7.81083946 Z" fill="#FFFFFF"></path>
                    <path d="M31.2916924,10.5865927 C31.2916924,10.0393108 30.9594772,9.7656699 30.9594772,9.7656699 L28.8481694,8.00582289 C28.8481694,8.00582289 28.1644784,7.43930294 28.1644784,6.40330598 L28.1644784,5.81669529 C28.1644784,4.70204074 29.0824815,3.7840451 30.1971286,3.7840451 C31.3109454,3.7840451 32.2297788,4.70204078 32.2297788,5.81669529 L32.2297788,6.69619995 L31.2138725,6.81334853 L31.2138725,5.81669529 C31.2138725,5.25016039 30.763656,4.79995132 30.1971286,4.79995132 C29.6297634,4.79995132 29.1803846,5.25016039 29.1803846,5.81669529 L29.1803846,6.40330598 C29.1803846,6.95058789 29.5126074,7.22422882 29.5126074,7.22422882 L31.6239151,8.98323809 C31.6239151,8.98323809 32.3084364,9.55061074 32.3084364,10.5865927 L32.3084364,11.4075156 C32.3084364,12.5799142 31.3695197,13.5188234 30.1971286,13.5188234 C29.0238998,13.5188234 28.0858208,12.5799142 28.0858208,11.4075156 L28.0858208,10.4686064 L29.1025648,10.3514428 L29.1025648,11.4075155 C29.1025648,12.0133792 29.5912649,12.5020794 30.1971286,12.5020794 C30.8029923,12.5020794 31.2916924,12.0133793 31.2916924,11.4075155 L31.2916924,10.5865927 L31.2916924,10.5865927 Z" fill="#FFFFFF"></path>
                    <path d="M37.8214369,10.1564594 L37.8214369,11.4075155 C37.8214369,12.5799141 36.8833579,13.5188233 35.7101291,13.5188233 C34.5377379,13.5188233 33.5988213,12.5799141 33.5988213,11.4075155 L33.5988213,5.89451505 C33.5988213,4.72213142 34.5377379,3.784045 35.7101291,3.784045 C36.8833579,3.784045 37.8214369,4.72213142 37.8214369,5.89451505 L37.8214369,8.82674569 L34.6155653,8.82674569 L34.6155653,11.4075155 C34.6155653,12.0133792 35.1042729,12.5020794 35.7101291,12.5020794 C36.3159928,12.5020794 36.8047004,12.0133793 36.8047004,11.4075155 L36.8047004,10.2736229 L37.8214369,10.1564594 L37.8214369,10.1564594 Z M34.6155653,7.81083946 L36.8047004,7.81083946 L36.8047004,5.89451505 C36.8047004,5.28865137 36.3159928,4.79995123 35.7101291,4.79995123 C35.1042729,4.79995123 34.6155653,5.28865132 34.6155653,5.89451505 L34.6155653,7.81083946 L34.6155653,7.81083946 Z" fill="#FFFFFF"></path>
                    <path d="M39.3076429,13.4209128 L39.3076429,3.88111789 L40.0114097,3.88111789 L40.1879778,4.62422093 C40.5202006,4.11626779 41.0674825,3.7840451 41.6733462,3.7840451 C42.6900827,3.7840451 43.5302585,4.72213152 43.5302585,5.89451515 L43.5302585,13.4209128 L42.5135146,13.4209128 L42.5135146,5.89451515 C42.5135146,5.28865147 42.024807,4.79995132 41.4189507,4.79995132 C40.8130871,4.79995132 40.3243795,5.28865142 40.3243795,5.89451515 L40.3243795,13.4209128 L39.3076429,13.4209128 L39.3076429,13.4209128 Z" fill="#FFFFFF"></path>
                    <path d="M48.10518,10.5865927 C48.10518,10.0393108 47.7729573,9.7656699 47.7729573,9.7656699 L45.6616495,8.00582289 C45.6616495,8.00582289 44.977966,7.43930294 44.977966,6.40330598 L44.977966,5.81669529 C44.977966,4.70204074 45.8959617,3.7840451 47.0106087,3.7840451 C48.1244255,3.7840451 49.0432589,4.70204078 49.0432589,5.81669529 L49.0432589,6.69619995 L48.0273527,6.81334858 L48.0273527,5.81669534 C48.0273527,5.25016044 47.5771436,4.79995137 47.0106087,4.79995137 C46.4432436,4.79995137 45.9938722,5.25016044 45.9938722,5.81669534 L45.9938722,6.40330603 C45.9938722,6.95058794 46.3260875,7.22422887 46.3260875,7.22422887 L48.4373952,8.98323814 C48.4373952,8.98323814 49.121924,9.55061078 49.121924,10.5865928 L49.121924,11.4075156 C49.121924,12.5799142 48.1830073,13.5188234 47.0106087,13.5188234 C45.8373874,13.5188234 44.8993009,12.5799142 44.8993009,11.4075156 L44.8993009,10.4686064 L45.9160449,10.3514428 L45.9160449,11.4075156 C45.9160449,12.0133793 46.4047525,12.5020794 47.0106087,12.5020794 C47.6164724,12.5020794 48.10518,12.0133793 48.10518,11.4075156 L48.10518,10.5865927 L48.10518,10.5865927 Z" fill="#FFFFFF"></path>
                    <path d="M54.634917,10.1564594 L54.634917,11.4075155 C54.634917,12.5799141 53.6968455,13.5188233 52.5236167,13.5188233 C51.3512256,13.5188233 50.4123015,12.5799141 50.4123015,11.4075155 L50.4123015,5.89451505 C50.4123015,4.72213142 51.3512256,3.784045 52.5236167,3.784045 C53.6968455,3.784045 54.634917,4.72213142 54.634917,5.89451505 L54.634917,8.82674569 L51.4290454,8.82674569 L51.4290454,11.4075155 C51.4290454,12.0133792 51.917753,12.5020794 52.5236167,12.5020794 C53.1294729,12.5020794 53.6181805,12.0133793 53.6181805,11.4075155 L53.6181805,10.2736229 L54.634917,10.1564594 L54.634917,10.1564594 Z M51.4290454,7.81083946 L53.6181805,7.81083946 L53.6181805,5.89451505 C53.6181805,5.28865137 53.1294729,4.79995123 52.5236167,4.79995123 C51.917753,4.79995123 51.4290454,5.28865132 51.4290454,5.89451505 L51.4290454,7.81083946 L51.4290454,7.81083946 Z" fill="#FFFFFF"></path>
                    <path d="M58.5847294,5.8945151 C58.5847294,4.72213147 59.5236535,3.78404505 60.6960372,3.78404505 C61.8692735,3.78404505 62.8073599,4.72213147 62.8073599,5.8945151 L62.8073599,11.4075156 C62.8073599,12.5799142 61.8692735,13.5188234 60.6960372,13.5188234 C59.5236535,13.5188234 58.5847294,12.5799142 58.5847294,11.4075156 L58.5847294,5.8945151 L58.5847294,5.8945151 Z M59.6014733,11.4075156 C59.6014733,12.0133793 60.0901884,12.5020794 60.6960372,12.5020794 C61.3019008,12.5020794 61.7906159,12.0133793 61.7906159,11.4075156 L61.7906159,5.8945151 C61.7906159,5.28865142 61.3019008,4.79995127 60.6960372,4.79995127 C60.0901884,4.79995127 59.6014733,5.28865137 59.6014733,5.8945151 L59.6014733,11.4075156 L59.6014733,11.4075156 Z" fill="#FFFFFF"></path>
                    <path d="M68.5747483,3.88111789 L68.5747483,13.4209128 L67.8709741,13.4209128 L67.6952437,12.6778247 C67.3621832,13.1857778 66.8149013,13.5188233 66.2090526,13.5188233 C65.1931464,13.5188233 64.3521327,12.5799141 64.3521327,11.4075155 L64.3521327,3.88111784 L65.3688767,3.88111784 L65.3688767,11.4075155 C65.3688767,12.0133792 65.8575768,12.5020794 66.4634405,12.5020794 C67.0693043,12.5020794 67.5580044,12.0133793 67.5580044,11.4075155 L67.5580044,3.88111784 L68.5747483,3.88111784 L68.5747483,3.88111789 Z" fill="#FFFFFF"></path>
                    <path d="M69.6500741,3.88111789 L70.8818772,3.88111789 L70.8818772,2.04428882 L71.8986212,1.9262875 L71.8986212,3.88111789 L73.1295866,3.88111789 L73.1295866,4.89786186 L71.8986212,4.89786186 L71.8986212,12.1112899 C71.8986212,12.326349 72.0743516,12.5020794 72.2894107,12.5020794 L72.2894107,13.5188234 C71.5069789,13.5188234 70.8818772,12.8928839 70.8818772,12.1112899 L70.8818772,4.89786186 L69.6500741,4.89786186 L69.6500741,3.88111789 L69.6500741,3.88111789 Z" fill="#FFFFFF"></path>
                    <path d="M76.6877717,5.8945151 C76.6877717,4.72213147 77.6266809,3.78404505 78.7990795,3.78404505 C79.9723008,3.78404505 80.9103873,4.72213147 80.9103873,5.8945151 L80.9103873,11.4075156 C80.9103873,12.5799142 79.9723008,13.5188234 78.7990795,13.5188234 C77.6266809,13.5188234 76.6877717,12.5799142 76.6877717,11.4075156 L76.6877717,5.8945151 L76.6877717,5.8945151 Z M77.7045007,11.4075156 C77.7045007,12.0133793 78.1932158,12.5020794 78.7990795,12.5020794 C79.4049282,12.5020794 79.8936433,12.0133793 79.8936433,11.4075156 L79.8936433,5.8945151 C79.8936433,5.28865142 79.4049282,4.79995127 78.7990795,4.79995127 C78.1932158,4.79995127 77.7045007,5.28865137 77.7045007,5.8945151 L77.7045007,11.4075156 L77.7045007,11.4075156 Z" fill="#FFFFFF"></path>
                    <path d="M81.8886252,3.88111789 L82.9438602,3.88111789 L82.9438602,2.10287059 C82.9438602,1.06687363 83.7848738,0.22586 84.8208708,0.22586 L85.1915846,0.22586 L85.1915846,1.24260397 L84.8208708,1.24260397 C84.3514087,1.24260397 83.9606042,1.63340848 83.9606042,2.10287054 L83.9606042,3.88111784 L85.1915846,3.88111784 L85.1915846,4.89786181 L83.9606042,4.89786181 L83.9606042,13.4209127 L82.9438602,13.4209127 L82.9438602,4.89786181 L81.8886252,4.89786181 L81.8886252,3.88111789 L81.8886252,3.88111789 Z" fill="#FFFFFF"></path>
                    <path d="M95.045187,5.8945151 C95.045187,5.28865142 94.5564869,4.79995127 93.9506231,4.79995127 C93.3447594,4.79995127 92.8560593,5.28865137 92.8560593,5.8945151 L92.8560593,13.4209128 L91.8393153,13.4209128 L91.8393153,5.8945151 C91.8393153,5.28865142 91.3506152,4.79995127 90.7447515,4.79995127 C90.1388878,4.79995127 89.6501877,5.28865137 89.6501877,5.8945151 L89.6501877,13.4209128 L88.6334437,13.4209128 L88.6334437,3.88111789 L89.337203,3.88111789 L89.5137711,4.62422093 C89.8459939,4.11626779 90.3932758,3.7840451 90.9991395,3.7840451 C91.5464214,3.7840451 92.0351364,4.05768603 92.3865972,4.48781936 C92.7581487,4.05768608 93.3255214,3.7840451 93.9506231,3.7840451 C95.1238445,3.7840451 96.0619309,4.72213152 96.0619309,5.89451515 L96.0619309,13.4209128 L95.0451869,13.4209128 L95.0451869,5.8945151 L95.045187,5.8945151 Z" fill="#4EBFA8"></path>
                    <path d="M101.830172,10.1564594 L101.830172,11.4075155 C101.830172,12.5799141 100.892086,13.5188233 99.7188493,13.5188233 C98.5464657,13.5188233 97.6075415,12.5799141 97.6075415,11.4075155 L97.6075415,5.89451505 C97.6075415,4.72213142 98.5464657,3.784045 99.7188493,3.784045 C100.892086,3.784045 101.830172,4.72213142 101.830172,5.89451505 L101.830172,8.82674569 L98.6242855,8.82674569 L98.6242855,11.4075155 C98.6242855,12.0133792 99.1130006,12.5020794 99.7188494,12.5020794 C100.324713,12.5020794 100.813428,12.0133793 100.813428,11.4075155 L100.813428,10.2736229 L101.830172,10.1564594 L101.830172,10.1564594 Z M98.6242855,7.81083946 L100.813428,7.81083946 L100.813428,5.89451505 C100.813428,5.28865137 100.324713,4.79995123 99.7188493,4.79995123 C99.1130006,4.79995123 98.6242855,5.28865132 98.6242855,5.89451505 L98.6242855,7.81083946 L98.6242855,7.81083946 Z" fill="#4EBFA8"></path>
                    <path d="M102.710499,3.88111789 L103.942318,3.88111789 L103.942318,2.04428882 L104.959047,1.9262875 L104.959047,3.88111789 L106.190027,3.88111789 L106.190027,4.89786186 L104.959047,4.89786186 L104.959047,12.1112899 C104.959047,12.326349 105.134792,12.5020794 105.349851,12.5020794 L105.349851,13.5188234 C104.567419,13.5188234 103.942318,12.8928839 103.942318,12.1112899 L103.942318,4.89786186 L102.710499,4.89786186 L102.710499,3.88111789 L102.710499,3.88111789 Z" fill="#4EBFA8"></path>
                    <path d="M110.198406,4.79995127 L109.475394,4.79995127 C108.810126,4.79995127 108.302172,5.3279802 108.302172,5.99242564 L108.302172,13.4209128 L107.285428,13.4209128 L107.285428,3.88111789 L107.989203,3.88111789 L108.165771,4.62422093 C108.497979,4.11626779 109.162424,3.7840451 110.198406,3.7840451 L110.198406,4.79995127 L110.198406,4.79995127 Z" fill="#4EBFA8"></path>
                    <path d="M111.234403,1.41834931 L112.251147,1.41834931 L112.251147,2.78655407 L111.234403,2.78655407 L111.234403,1.41834931 L111.234403,1.41834931 Z M112.251147,3.88111789 L111.234403,3.88111789 L111.234403,13.4209128 L112.251147,13.4209128 L112.251147,3.88111789 L112.251147,3.88111789 Z" fill="#4EBFA8"></path>
                    <path d="M118.037789,10.273623 L118.037789,11.4075156 C118.037789,12.5799142 117.099702,13.5188234 115.926481,13.5188234 C114.754082,13.5188234 113.815173,12.5799142 113.815173,11.4075156 L113.815173,5.8945151 C113.815173,4.72213147 114.754082,3.78404505 115.926481,3.78404505 C117.099702,3.78404505 118.037789,4.72213147 118.037789,5.8945151 L118.037789,7.00916966 L117.021045,7.12631828 L117.021045,5.89451515 C117.021045,5.28865147 116.532344,4.79995132 115.926481,4.79995132 C115.320617,4.79995132 114.831917,5.28865142 114.831917,5.89451515 L114.831917,11.4075156 C114.831917,12.0133793 115.320617,12.5020795 115.926481,12.5020795 C116.532344,12.5020795 117.021045,12.0133794 117.021045,11.4075156 L117.021045,10.273623 L118.037789,10.273623 L118.037789,10.273623 Z" fill="#4EBFA8"></path>
                    <path d="M122.37839,10.5865927 C122.37839,10.0393108 122.046183,9.7656699 122.046183,9.7656699 L119.934875,8.00582289 C119.934875,8.00582289 119.251176,7.43930294 119.251176,6.40330598 L119.251176,5.81669529 C119.251176,4.70204074 120.169187,3.7840451 121.283827,3.7840451 C122.397643,3.7840451 123.316477,4.70204078 123.316477,5.81669529 L123.316477,6.69619995 L122.300571,6.81334858 L122.300571,5.81669534 C122.300571,5.25016044 121.850361,4.79995137 121.283827,4.79995137 C120.716469,4.79995137 120.267083,5.25016044 120.267083,5.81669534 L120.267083,6.40330603 C120.267083,6.95058794 120.599305,7.22422887 120.599305,7.22422887 L122.710613,8.98323814 C122.710613,8.98323814 123.395134,9.55061078 123.395134,10.5865928 L123.395134,11.4075156 C123.395134,12.5799142 122.456225,13.5188234 121.283827,13.5188234 C120.110605,13.5188234 119.172519,12.5799142 119.172519,11.4075156 L119.172519,10.4686064 L120.189263,10.3514428 L120.189263,11.4075156 C120.189263,12.0133793 120.677963,12.5020794 121.283827,12.5020794 C121.88969,12.5020794 122.37839,12.0133793 122.37839,11.4075156 L122.37839,10.5865927 L122.37839,10.5865927 Z" fill="#4EBFA8"></path>
                </g>
                <g id="Shape">
                    <polygon fill="#1A6F7B" points="20.0478161 33.7021996 22.518171 33.7021996 23.4772514 33.5755666 29.868728 33.8275386 34.3746559 36.6825702 41.8433021 35.2052053 41.4948931 42.8103727 39.7523955 41.3106357 39.145997 41.8964012 30.2103903 50.6105012 18.5840027 62.0906306 54.3952568 62.0908101 54.3954812 0.206659363"></polygon>
                    <polygon fill="#4EBFA8" points="18.4245297 35.2851643 20.0206009 36.6588443 12.5521809 38.1364336 12.90059 30.5310343 14.6017 31.994958 29.583974 17.384488 36.4779342 10.5652603 0.000224901961 10.5650883 0 73.0530533 35.926415 38.0180658 34.3746559 36.6825702 41.8433021 35.2052053 43.6465282 33.2702263 54.3952568 20.5579047 54.3954812 0.206659363"></polygon>
                </g>
            </g>
        </g>
    </g>
</svg>